<?xml version="1.0" standalone="no"?>
<!DOCTYPE svg PUBLIC "-//W3C//DTD SVG 20010904//EN"
 "http://www.w3.org/TR/2001/REC-SVG-20010904/DTD/svg10.dtd">
<svg version="1.0" xmlns="http://www.w3.org/2000/svg"
 width="1200.000000pt" height="1200.000000pt" viewBox="0 0 1200.000000 1200.000000"
 preserveAspectRatio="xMidYMid meet">
<metadata>
Created by potrace 1.14, written by Peter Selinger 2001-2017
</metadata>
<g transform="translate(0.000000,1200.000000) scale(0.100000,-0.100000)"
fill="#000000" stroke="none">
<path d="M1377 11953 c-21 -165 -68 -870 -92 -1398 -64 -1402 -105 -3773 -75
-4325 53 -956 259 -1754 661 -2550 317 -628 715 -1175 1239 -1701 705 -707
1563 -1310 2632 -1850 l258 -129 190 94 c814 406 1533 866 2131 1364 489 408
902 841 1251 1312 606 819 1011 1801 1152 2795 70 493 80 725 72 1695 -16
1911 -77 3635 -161 4568 -8 89 -15 165 -15 167 0 3 -2078 5 -4619 5 l-4618 0
-6 -47z m4183 -403 c282 -21 517 -23 790 -6 146 9 281 18 300 19 43 2 44 30
-19 -283 -105 -518 -182 -1078 -198 -1429 l-6 -144 229 7 c477 14 803 51 1207
136 129 28 403 102 496 134 21 8 41 13 43 11 1 -2 0 -52 -4 -112 -16 -268 -20
-731 -9 -1003 7 -157 15 -294 18 -304 4 -15 1 -18 -13 -13 -654 194 -1064 261
-1691 274 l-283 6 0 -646 0 -647 363 0 c626 0 1079 36 1517 121 171 33 421 94
545 133 43 14 80 24 82 23 1 -2 -2 -81 -7 -177 -12 -229 -12 -859 0 -1079 5
-96 9 -176 7 -177 -1 -2 -61 15 -132 37 -324 98 -781 176 -1260 214 -121 10
-380 19 -657 22 l-458 6 0 -962 c0 -528 -1 -961 -2 -961 -2 0 -28 9 -58 21
-209 80 -511 80 -720 0 -30 -12 -56 -21 -57 -21 -2 0 -3 433 -3 961 l0 962
-457 -6 c-448 -6 -573 -12 -878 -43 -351 -35 -765 -112 -1021 -188 -82 -25
-150 -43 -151 -42 -2 1 2 81 7 177 12 224 12 854 0 1078 -5 96 -8 176 -6 178
1 2 38 -8 82 -22 201 -65 543 -140 814 -179 372 -54 736 -76 1248 -76 l362 0
0 647 0 646 -282 -6 c-590 -12 -1065 -85 -1585 -243 -64 -19 -116 -34 -117
-32 -2 2 2 57 7 123 12 152 12 1031 0 1188 -4 65 -7 120 -5 121 1 2 53 -12
115 -31 524 -160 981 -229 1635 -249 l222 -7 0 70 c0 298 -101 1034 -220 1598
-21 99 -36 183 -34 187 2 3 28 5 57 2 28 -2 113 -9 187 -14z"/>
</g>
</svg>
