<?xml version="1.0" encoding="UTF-8" standalone="no"?>
<svg
   xmlns:dc="http://purl.org/dc/elements/1.1/"
   xmlns:cc="http://creativecommons.org/ns#"
   xmlns:rdf="http://www.w3.org/1999/02/22-rdf-syntax-ns#"
   xmlns:svg="http://www.w3.org/2000/svg"
   xmlns="http://www.w3.org/2000/svg"
   xmlns:sodipodi="http://sodipodi.sourceforge.net/DTD/sodipodi-0.dtd"
   xmlns:inkscape="http://www.inkscape.org/namespaces/inkscape"
   version="1.1"
   id="svg2"
   xml:space="preserve"
   width="980"
   height="262"
   viewBox="0 0 980 262"
   sodipodi:docname="logo MZV cierne SK linka.ai"><metadata
     id="metadata8"><rdf:RDF><cc:Work
         rdf:about=""><dc:format>image/svg+xml</dc:format><dc:type
           rdf:resource="http://purl.org/dc/dcmitype/StillImage" /></cc:Work></rdf:RDF></metadata><defs
     id="defs6"><clipPath
       clipPathUnits="userSpaceOnUse"
       id="clipPath32"><path
         d="M 0,595.28 H 841.89 V 0 H 0 Z"
         id="path30" /></clipPath></defs><sodipodi:namedview
     pagecolor="#ffffff"
     bordercolor="#666666"
     borderopacity="1"
     objecttolerance="10"
     gridtolerance="10"
     guidetolerance="10"
     inkscape:pageopacity="0"
     inkscape:pageshadow="2"
     inkscape:window-width="640"
     inkscape:window-height="480"
     id="namedview4" /><g
     id="g10"
     inkscape:groupmode="layer"
     inkscape:label="logo MZV cierne SK linka"
     transform="matrix(1.3333333,0,0,-1.3333333,-63,566)"><path
       d="M 490.609,376.58 H 176.247 v 4.501 h 314.362 z"
       style="fill:#100f0d;fill-opacity:1;fill-rule:nonzero;stroke:none"
       id="path12" /><g
       id="g14"
       transform="translate(206.5405,394.1978)"><path
         d="M 0,0 V 19.925 L -10.304,0 h -4.069 L -24.37,19.579 V 0 h -4.573 v 29.89 h 4.942 L -12.212,5.962 0,29.89 H 4.569 V 0 Z"
         style="fill:#100f0d;fill-opacity:1;fill-rule:nonzero;stroke:none"
         id="path16" /></g><path
       d="m 225.56,394.198 h -4.568 v 29.89 h 4.568 z"
       style="fill:#100f0d;fill-opacity:1;fill-rule:nonzero;stroke:none"
       id="path18" /><g
       id="g20"
       transform="translate(265.0791,424.0879)"><path
         d="m 0,0 v -29.886 h -3.693 l -21.376,22.24 v -22.24 H -29.63 V 0 h 3.728 L -4.564,-22.285 V 0 Z"
         style="fill:#100f0d;fill-opacity:1;fill-rule:nonzero;stroke:none"
         id="path22" /></g><path
       d="m 279.53,394.198 h -4.569 v 29.89 h 4.569 z"
       style="fill:#100f0d;fill-opacity:1;fill-rule:nonzero;stroke:none"
       id="path24" /><g
       id="g26"><g
         id="g28"
         clip-path="url(#clipPath32)"><g
           id="g34"
           transform="translate(288.9199,401.1929)"><path
             d="m 0,0 c 1.329,-1.521 4.265,-3.194 6.654,-3.194 2.779,0 4.79,1.593 4.79,4.334 0,5.175 -12.473,4.449 -12.473,13.579 0,5.321 4.423,8.553 8.753,8.553 2.806,0 4.941,-1.025 6.116,-2.054 v -5.812 c -1.06,1.563 -3.337,3.655 -6.081,3.655 -2.553,0 -4.185,-1.72 -4.185,-4.146 0,-5.602 12.588,-4.649 12.588,-13.587 0,-5.594 -4.675,-8.865 -9.655,-8.865 -2.783,0 -5.102,1.076 -6.507,2.328 z"
             style="fill:#100f0d;fill-opacity:1;fill-rule:nonzero;stroke:none"
             id="path36" /></g><g
           id="g38"
           transform="translate(307.1709,424.0879)"><path
             d="M 0,0 H 24.041 V -4.26 H 14.305 V -29.886 H 9.736 V -4.26 L 0,-4.26 Z"
             style="fill:#100f0d;fill-opacity:1;fill-rule:nonzero;stroke:none"
             id="path40" /></g><g
           id="g42"
           transform="translate(349.9272,394.1978)"><path
             d="M 0,0 H -13.963 V 29.89 H 0 v -4.256 h -9.391 v -8.557 h 6.649 V 12.849 H -9.391 V 4.215 l 9.391,0 z"
             style="fill:#100f0d;fill-opacity:1;fill-rule:nonzero;stroke:none"
             id="path44" /></g><g
           id="g46"
           transform="translate(362.9722,409.6021)"><path
             d="m 0,0 h 1.747 c 3.962,0 6.426,1.63 6.426,5.247 0,3.455 -2.399,4.982 -6.307,4.982 H 0 Z M 4.185,-3.998 C 3.352,-4.114 2.469,-4.183 1.562,-4.183 H 0 v -11.221 h -4.573 v 29.89 h 6.281 c 6.888,0 11.376,-2.817 11.376,-9.32 0,-3.455 -1.64,-6.013 -4.262,-7.563 l 11.824,-13.007 h -6.422 z"
             style="fill:#100f0d;fill-opacity:1;fill-rule:nonzero;stroke:none"
             id="path48" /></g><g
           id="g50"
           transform="translate(385.7881,401.1929)"><path
             d="m 0,0 c 1.328,-1.521 4.254,-3.194 6.653,-3.194 2.78,0 4.795,1.593 4.795,4.334 0,5.175 -12.477,4.449 -12.477,13.579 0,5.321 4.411,8.553 8.753,8.553 2.81,0 4.941,-1.025 6.12,-2.054 v -5.812 c -1.064,1.563 -3.352,3.655 -6.081,3.655 -2.557,0 -4.185,-1.72 -4.185,-4.146 0,-5.602 12.584,-4.649 12.584,-13.587 0,-5.594 -4.676,-8.865 -9.659,-8.865 -2.779,0 -5.098,1.076 -6.503,2.328 z"
             style="fill:#100f0d;fill-opacity:1;fill-rule:nonzero;stroke:none"
             id="path52" /></g><g
           id="g54"
           transform="translate(403.8584,424.0879)"><path
             d="M 0,0 H 24.037 V -4.26 H 14.293 V -29.886 H 9.732 V -4.26 L 0,-4.26 Z"
             style="fill:#100f0d;fill-opacity:1;fill-rule:nonzero;stroke:none"
             id="path56" /></g><g
           id="g58"
           transform="translate(442.7559,399.4458)"><path
             d="m 0,0 8.938,24.642 h 4.91 L 2.25,-5.244 h -4.795 l -10.804,29.886 h 4.907 z"
             style="fill:#100f0d;fill-opacity:1;fill-rule:nonzero;stroke:none"
             id="path60" /></g><g
           id="g62"
           transform="translate(475.2002,397.8408)"><path
             d="M 0,0 C 6.703,0.124 10.812,5.222 10.692,11.563 10.535,18.071 6.465,22.175 0.162,22.213 -7.562,22.175 -10.435,15.568 -10.393,11.153 -10.489,6.016 -7.64,0.081 0,0 M 0.162,26.437 C 8.945,26.359 15.21,20.77 15.406,11.761 15.563,2.93 9.236,-4.065 -0.077,-4.217 c -10.608,0.117 -15.169,8.259 -15.067,15.37 -0.033,6.158 4.579,15.248 15.306,15.284"
             style="fill:#100f0d;fill-opacity:1;fill-rule:nonzero;stroke:none"
             id="path64" /></g><g
           id="g66"
           transform="translate(176.1196,357.0776)"><path
             d="M 0,0 H 19.472 V -3.39 L 5.625,-25.672 h 13.736 v -4.223 H -0.042 v 3.378 L 13.614,-4.266 H 0 Z"
             style="fill:#100f0d;fill-opacity:1;fill-rule:nonzero;stroke:none"
             id="path68" /></g><g
           id="g70"
           transform="translate(209.3589,341.5557)"><path
             d="M 0,0 H 7.071 L 3.578,10.082 Z M 5.935,15.522 16.991,-14.373 H 12.097 L 8.557,-4.21 H -1.482 L -5.056,-14.373 H -9.971 L 1.486,15.522 Z"
             style="fill:#100f0d;fill-opacity:1;fill-rule:nonzero;stroke:none"
             id="path72" /></g><g
           id="g74"
           transform="translate(251.7954,357.0776)"><path
             d="M 0,0 H 4.569 V -29.895 H 0 v 12.822 h -15.168 v -12.822 h -4.568 V 0 h 4.568 V -12.861 H 0 Z"
             style="fill:#100f0d;fill-opacity:1;fill-rule:nonzero;stroke:none"
             id="path76" /></g><g
           id="g78"
           transform="translate(270.8145,342.585)"><path
             d="m 0,0 h 1.751 c 3.958,0 6.429,1.632 6.429,5.248 0,3.455 -2.394,4.983 -6.314,4.983 H 0 Z M 4.185,-3.996 C 3.352,-4.104 2.477,-4.185 1.563,-4.185 H 0 v -11.217 h -4.561 v 29.895 h 6.269 c 6.888,0 11.376,-2.818 11.376,-9.326 0,-3.455 -1.639,-6 -4.261,-7.563 L 20.646,-15.402 H 14.22 Z"
             style="fill:#100f0d;fill-opacity:1;fill-rule:nonzero;stroke:none"
             id="path80" /></g><g
           id="g82"
           transform="translate(301.4316,341.5557)"><path
             d="M 0,0 H 7.076 L 3.578,10.082 Z M 5.935,15.522 16.996,-14.373 H 12.097 L 8.561,-4.21 H -1.478 L -5.056,-14.373 H -9.971 L 1.486,15.522 Z"
             style="fill:#100f0d;fill-opacity:1;fill-rule:nonzero;stroke:none"
             id="path84" /></g><g
           id="g86"
           transform="translate(353.7622,357.0776)"><path
             d="M 0,0 V -29.895 H -3.693 L -25.058,-7.644 V -29.895 H -29.63 V 0 h 3.724 L -4.565,-22.294 V 0 Z"
             style="fill:#100f0d;fill-opacity:1;fill-rule:nonzero;stroke:none"
             id="path88" /></g><path
           d="m 368.212,327.183 h -4.557 v 29.895 h 4.557 z"
           style="fill:#100f0d;fill-opacity:1;fill-rule:nonzero;stroke:none"
           id="path90" /><g
           id="g92"
           transform="translate(397.0864,364.9858)"><path
             d="M 0,0 -4.077,-5.816 H -8.066 L -11.986,0 h 3.762 L -6.012,-3.309 -3.84,0 Z m -21.23,-23.007 c -0.039,6.157 4.564,15.483 15.299,15.483 4.212,0 7.413,-1.179 9.505,-2.861 v -5.396 c -2.169,2.164 -4.829,4.033 -9.505,4.033 -7.725,0 -10.585,-6.848 -10.547,-11.259 0,-4.834 2.822,-11.073 10.547,-11.073 3.984,0 7.374,1.416 9.505,3.429 v -4.795 c -2.357,-1.747 -4.991,-2.848 -9.505,-2.848 -10.735,0.03 -15.299,8.518 -15.299,15.245 z"
             style="fill:#100f0d;fill-opacity:1;fill-rule:nonzero;stroke:none"
             id="path94" /></g><g
           id="g96"
           transform="translate(437.8926,357.0776)"><path
             d="M 0,0 V -29.895 H -3.698 L -25.074,-7.644 V -29.895 H -29.63 V 0 h 3.723 L -4.569,-22.294 V 0 Z"
             style="fill:#100f0d;fill-opacity:1;fill-rule:nonzero;stroke:none"
             id="path98" /></g><g
           id="g100"
           transform="translate(455.4941,358.4404)"><path
             d="M 0,0 -2.432,2.319 3.044,7.989 5.598,5.325 Z M 2.896,-31.254 H -1.67 v 11.867 l -9.855,18.024 h 5.258 L 0.878,-14.867 7.72,-1.363 h 5.245 L 2.896,-19.472 Z"
             style="fill:#100f0d;fill-opacity:1;fill-rule:nonzero;stroke:none"
             id="path102" /></g><g
           id="g104"
           transform="translate(473.0576,341.9785)"><path
             d="m 0,0 c -0.018,6.162 4.576,15.483 15.311,15.483 4.223,0 7.401,-1.178 9.505,-2.86 V 7.225 C 22.636,9.39 19.983,11.26 15.311,11.26 7.587,11.26 4.727,4.411 4.753,0 c 0,-4.833 2.834,-11.072 10.558,-11.072 3.985,0 7.363,1.415 9.505,3.428 v -4.795 c -2.356,-1.747 -4.99,-2.848 -9.505,-2.848 C 4.576,-15.257 0,-6.772 0,-0.038 Z"
             style="fill:#100f0d;fill-opacity:1;fill-rule:nonzero;stroke:none"
             id="path106" /></g><g
           id="g108"
           transform="translate(525.2002,357.0776)"><path
             d="M 0,0 H 4.581 V -29.895 H 0 v 12.822 h -15.164 v -12.822 h -4.557 V 0 h 4.557 V -12.861 H 0 Z"
             style="fill:#100f0d;fill-opacity:1;fill-rule:nonzero;stroke:none"
             id="path110" /></g><g
           id="g112"
           transform="translate(564.0449,332.4272)"><path
             d="m 0,0 8.941,24.65 h 4.895 L 2.241,-5.245 H -2.554 L -13.361,24.65 h 4.915 z"
             style="fill:#100f0d;fill-opacity:1;fill-rule:nonzero;stroke:none"
             id="path114" /></g><g
           id="g116"
           transform="translate(598.1113,327.1826)"><path
             d="M 0,0 H -13.95 V 29.895 H 0 v -4.262 h -9.39 v -8.561 h 6.658 V 12.85 H -9.39 V 4.223 H 0 Z"
             style="fill:#100f0d;fill-opacity:1;fill-rule:nonzero;stroke:none"
             id="path118" /></g><g
           id="g120"
           transform="translate(604.3633,341.9785)"><path
             d="m 0,0 c -0.047,6.162 4.553,15.483 15.282,15.483 4.228,0 7.405,-1.178 9.51,-2.86 V 7.225 C 22.618,9.39 19.955,11.26 15.282,11.26 7.559,11.26 4.714,4.411 4.752,0 c 0,-4.833 2.807,-11.072 10.53,-11.072 3.989,0 7.367,1.415 9.51,3.428 v -4.795 c -2.357,-1.747 -4.991,-2.848 -9.51,-2.848 C 4.553,-15.257 0,-6.772 0,-0.038 Z"
             style="fill:#100f0d;fill-opacity:1;fill-rule:nonzero;stroke:none"
             id="path122" /></g><path
           d="m 641.313,327.183 h -4.557 v 29.895 h 4.557 z m -2.729,31.257 -2.434,2.319 5.478,5.67 2.552,-2.664 z"
           style="fill:#100f0d;fill-opacity:1;fill-rule:nonzero;stroke:none"
           id="path124" /><g
           id="g126"
           transform="translate(184.896,297.2725)"><path
             d="M 0,0 H 7.075 L 3.578,10.077 Z M 5.935,15.511 17.011,-14.383 H 12.1 L 8.561,-4.228 H -1.478 L -5.056,-14.383 H -9.958 L 1.485,15.511 Z"
             style="fill:#100f0d;fill-opacity:1;fill-rule:nonzero;stroke:none"
             id="path128" /></g><g
           id="g130"
           transform="translate(235.0688,282.8896)"><path
             d="M 0,0 H -13.962 V 29.894 H 0 v -4.255 h -9.394 v -8.557 h 6.653 V 12.854 H -9.394 V 4.225 l 9.394,0 z"
             style="fill:#100f0d;fill-opacity:1;fill-rule:nonzero;stroke:none"
             id="path132" /></g><g
           id="g134"
           transform="translate(246.5898,312.7837)"><path
             d="m 0,0 v -14.298 c 0,-6.154 2.78,-12.025 9.655,-12.025 5.709,0 9.629,4.531 9.629,11.987 V 0 h 4.557 v -14.298 c 0,-9.694 -5.855,-16.17 -14.186,-16.17 -9.881,0 -14.223,6.741 -14.223,16.132 V 0 Z"
             style="fill:#100f0d;fill-opacity:1;fill-rule:nonzero;stroke:none"
             id="path136" /></g><g
           id="g138"
           transform="translate(283.3687,298.2896)"><path
             d="m 0,0 h 1.751 c 3.947,0 6.426,1.643 6.426,5.26 0,3.455 -2.399,4.979 -6.319,4.979 H 0 Z M 4.185,-3.985 C 3.34,-4.104 2.464,-4.173 1.552,-4.173 H 0 V -15.4 h -4.565 v 29.894 h 6.273 c 6.888,0 11.38,-2.811 11.38,-9.315 0,-3.459 -1.64,-6.012 -4.266,-7.562 L 20.65,-15.4 h -6.422 z"
             style="fill:#100f0d;fill-opacity:1;fill-rule:nonzero;stroke:none"
             id="path140" /></g><g
           id="g142"
           transform="translate(319.0757,314.1562)"><path
             d="m 0,0 -2.434,2.319 5.483,5.667 2.545,-2.66 z m 1.644,-27.614 c 6.687,0.119 10.795,5.218 10.681,11.563 -0.151,6.503 -4.22,10.612 -10.536,10.646 -7.72,-0.034 -10.573,-6.649 -10.53,-11.063 -0.119,-5.135 2.729,-11.065 10.385,-11.146 m 0.145,26.435 c 8.784,-0.08 15.061,-5.67 15.261,-14.688 0.142,-8.822 -6.174,-15.813 -15.487,-15.974 -10.611,0.118 -15.176,8.266 -15.061,15.373 -0.039,6.164 4.56,15.251 15.287,15.289"
             style="fill:#100f0d;fill-opacity:1;fill-rule:nonzero;stroke:none"
             id="path144" /></g><g
           id="g146"
           transform="translate(348.3184,298.2896)"><path
             d="m 0,0 h 1.75 c 3.958,0 6.439,1.643 6.439,5.26 0,3.455 -2.399,4.979 -6.319,4.979 H 0 Z M 0,-4.173 V -15.4 h -4.553 v 29.894 h 6.276 c 6.873,0 11.364,-2.811 11.364,-9.315 0,-6.054 -5.098,-9.352 -11.525,-9.352 z"
             style="fill:#100f0d;fill-opacity:1;fill-rule:nonzero;stroke:none"
             id="path148" /></g><g
           id="g150"
           transform="translate(368.1357,289.8936)"><path
             d="m 0,0 c 1.336,-1.524 4.265,-3.193 6.661,-3.193 2.782,0 4.791,1.589 4.791,4.334 0,5.171 -12.473,4.449 -12.473,13.574 0,5.325 4.411,8.557 8.741,8.557 2.822,0 4.953,-1.024 6.132,-2.053 v -5.816 c -1.072,1.558 -3.348,3.644 -6.093,3.644 -2.546,0 -4.185,-1.71 -4.185,-4.145 0,-5.593 12.596,-4.636 12.596,-13.582 0,-5.586 -4.676,-8.856 -9.667,-8.856 -2.768,0 -5.086,1.071 -6.503,2.318 z"
             style="fill:#100f0d;fill-opacity:1;fill-rule:nonzero;stroke:none"
             id="path152" /></g><g
           id="g154"
           transform="translate(396.4761,312.7837)"><path
             d="M 0,0 V -14.721 L 13.045,0 h 6.081 L 5.282,-15.024 19.011,-29.894 H 12.845 L 0,-15.634 v -14.26 h -4.569 l 0,29.894 z"
             style="fill:#100f0d;fill-opacity:1;fill-rule:nonzero;stroke:none"
             id="path156" /></g><g
           id="g158"
           transform="translate(431.918,282.8896)"><path
             d="m 0,0 h -4.564 v 11.864 l -9.844,18.03 h 5.245 l 7.152,-13.5 6.845,13.5 h 5.248 L 0,11.795 Z"
             style="fill:#100f0d;fill-opacity:1;fill-rule:nonzero;stroke:none"
             id="path160" /></g><g
           id="g162"
           transform="translate(445.4551,297.6885)"><path
             d="m 0,0 c -0.039,6.164 4.572,15.478 15.291,15.478 4.219,0 7.421,-1.183 9.505,-2.849 V 7.224 C 22.635,9.397 19.963,11.252 15.291,11.252 7.575,11.252 4.714,4.414 4.756,0 c 0,-4.827 2.819,-11.065 10.535,-11.065 4.003,0 7.383,1.404 9.505,3.416 v -4.788 c -2.36,-1.753 -4.971,-2.86 -9.505,-2.86 C 4.572,-15.255 0,-6.773 0,-0.036 Z"
             style="fill:#100f0d;fill-opacity:1;fill-rule:nonzero;stroke:none"
             id="path164" /></g><g
           id="g166"
           transform="translate(497.5977,312.7837)"><path
             d="M 0,0 H 4.561 V -29.894 H 0 v 12.816 h -15.164 v -12.816 h -4.585 V 0 h 4.585 V -12.851 H 0 Z"
             style="fill:#100f0d;fill-opacity:1;fill-rule:nonzero;stroke:none"
             id="path168" /></g><g
           id="g170"
           transform="translate(523.4961,312.7837)"><path
             d="M 0,0 H 19.468 V -3.384 L 5.636,-25.669 h 13.736 v -4.225 H -0.046 v 3.388 L 13.613,-4.255 H 0 Z"
             style="fill:#100f0d;fill-opacity:1;fill-rule:nonzero;stroke:none"
             id="path172" /></g><g
           id="g174"
           transform="translate(559.7832,314.1562)"><path
             d="M 0,0 -2.438,2.319 3.044,7.986 5.601,5.326 Z M -2.666,-16.884 H 4.421 L 0.899,-6.807 Z M 3.262,-1.373 14.343,-31.267 H 9.429 L 5.893,-21.111 H -4.146 l -3.579,-10.156 h -4.914 l 11.456,29.894 z"
             style="fill:#100f0d;fill-opacity:1;fill-rule:nonzero;stroke:none"
             id="path176" /></g><g
           id="g178"
           transform="translate(595.2256,282.8896)"><path
             d="m 0,0 h -15.778 v 29.894 h 4.56 V 4.225 L 0,4.225 Z"
             style="fill:#100f0d;fill-opacity:1;fill-rule:nonzero;stroke:none"
             id="path180" /></g><g
           id="g182"
           transform="translate(614.9697,282.8896)"><path
             d="M 0,0 H -13.971 V 29.894 H 0 v -4.255 h -9.39 v -8.557 h 6.643 V 12.854 H -9.39 V 4.225 H 0 Z"
             style="fill:#100f0d;fill-opacity:1;fill-rule:nonzero;stroke:none"
             id="path184" /></g><g
           id="g186"
           transform="translate(636.6797,320.7021)"><path
             d="M 0,0 -4.069,-5.828 H -8.054 L -11.986,0 h 3.77 L -6.012,-3.313 -3.831,0 Z M -15.482,-7.918 H 3.986 v -3.384 L -9.843,-33.588 H 3.893 v -4.225 h -19.418 v 3.388 l 13.659,22.252 h -13.616 z"
             style="fill:#100f0d;fill-opacity:1;fill-rule:nonzero;stroke:none"
             id="path188" /></g><path
           d="m 652.851,282.89 h -4.562 v 29.894 h 4.562 z"
           style="fill:#100f0d;fill-opacity:1;fill-rule:nonzero;stroke:none"
           id="path190" /><g
           id="g192"
           transform="translate(658.1758,312.7837)"><path
             d="M 0,0 H 24.027 V -4.255 H 14.304 V -29.894 H 9.725 v 25.639 l -9.725,0 z"
             style="fill:#100f0d;fill-opacity:1;fill-rule:nonzero;stroke:none"
             id="path194" /></g><g
           id="g196"
           transform="translate(700.416,286.542)"><path
             d="M 0,0 C 6.696,0.119 10.804,5.218 10.688,11.563 10.551,18.066 6.484,22.175 0.153,22.209 -7.566,22.175 -10.415,15.56 -10.373,11.146 -10.496,6.012 -7.646,0.081 0,0 m 0.153,26.436 c 8.785,-0.081 15.074,-5.67 15.25,-14.688 0.158,-8.819 -6.151,-15.813 -15.46,-15.975 -10.618,0.119 -15.192,8.266 -15.073,15.373 -0.042,6.165 4.558,15.251 15.283,15.29"
             style="fill:#100f0d;fill-opacity:1;fill-rule:nonzero;stroke:none"
             id="path198" /></g><g
           id="g200"
           transform="translate(722.9668,289.8936)"><path
             d="m 0,0 c 1.336,-1.524 4.262,-3.193 6.661,-3.193 2.769,0 4.795,1.589 4.795,4.334 0,5.171 -12.477,4.449 -12.477,13.574 0,5.325 4.422,8.557 8.746,8.557 2.83,0 4.948,-1.024 6.127,-2.053 v -5.816 c -1.06,1.558 -3.336,3.644 -6.089,3.644 -2.534,0 -4.185,-1.71 -4.185,-4.145 0,-5.593 12.593,-4.636 12.593,-13.582 0,-5.586 -4.676,-8.856 -9.666,-8.856 -2.773,0 -5.088,1.071 -6.505,2.318 z"
             style="fill:#100f0d;fill-opacity:1;fill-rule:nonzero;stroke:none"
             id="path202" /></g><g
           id="g204"
           transform="translate(743.7002,312.7837)"><path
             d="M 0,0 H 24.047 V -4.255 H 14.299 V -29.894 H 9.742 v 25.639 l -9.742,0 z"
             style="fill:#100f0d;fill-opacity:1;fill-rule:nonzero;stroke:none"
             id="path206" /></g><path
           d="m 778.393,282.89 h -4.573 v 29.894 h 4.573 z m -2.744,31.266 -2.424,2.32 5.462,5.666 2.557,-2.66 z"
           style="fill:#100f0d;fill-opacity:1;fill-rule:nonzero;stroke:none"
           id="path208" /><g
           id="g210"
           transform="translate(177.1104,245.5986)"><path
             d="m 0,0 c 1.324,-1.513 4.253,-3.194 6.649,-3.194 2.784,0 4.795,1.6 4.795,4.341 0,5.167 -12.477,4.45 -12.477,13.58 0,5.321 4.411,8.553 8.754,8.553 2.809,0 4.94,-1.033 6.119,-2.054 v -5.829 c -1.061,1.567 -3.352,3.66 -6.093,3.66 -2.545,0 -4.173,-1.708 -4.173,-4.147 0,-5.589 12.585,-4.634 12.585,-13.574 0,-5.59 -4.676,-8.861 -9.656,-8.861 -2.783,0 -5.098,1.06 -6.503,2.315 z"
             style="fill:#100f0d;fill-opacity:1;fill-rule:nonzero;stroke:none"
             id="path212" /></g><g
           id="g214"
           transform="translate(216.6567,238.6035)"><path
             d="m 0,0 h -15.787 v 29.891 h 4.569 V 4.223 L 0,4.223 Z"
             style="fill:#100f0d;fill-opacity:1;fill-rule:nonzero;stroke:none"
             id="path216" /></g><g
           id="g218"
           transform="translate(234.3779,242.2539)"><path
             d="M 0,0 C 6.703,0.108 10.811,5.206 10.688,11.563 10.542,18.071 6.465,22.179 0.162,22.214 -7.563,22.179 -10.423,15.553 -10.377,11.146 -10.488,6.005 -7.64,0.075 0,0 M 0.162,26.426 C 8.945,26.359 15.222,20.771 15.402,11.752 15.564,2.93 9.249,-4.072 -0.077,-4.223 c -10.611,0.119 -15.168,8.25 -15.061,15.369 -0.038,6.157 4.569,15.256 15.3,15.28"
             style="fill:#100f0d;fill-opacity:1;fill-rule:nonzero;stroke:none"
             id="path220" /></g><g
           id="g222"
           transform="translate(265.8354,243.8477)"><path
             d="M 0,0 8.941,24.646 H 13.84 L 2.238,-5.244 h -4.783 l -10.804,29.89 h 4.903 z"
             style="fill:#100f0d;fill-opacity:1;fill-rule:nonzero;stroke:none"
             id="path224" /></g><g
           id="g226"
           transform="translate(299.147,238.6035)"><path
             d="M 0,0 H -13.951 V 29.891 H 0 v -4.259 h -9.39 v -8.564 h 6.661 V 12.857 H -9.39 V 4.223 H 0 Z"
             style="fill:#100f0d;fill-opacity:1;fill-rule:nonzero;stroke:none"
             id="path228" /></g><g
           id="g230"
           transform="translate(336.8818,268.4941)"><path
             d="M 0,0 V -29.891 H -3.7 L -25.062,-7.64 V -29.891 H -29.63 V 0 h 3.72 L -4.573,-22.289 V 0 Z"
             style="fill:#100f0d;fill-opacity:1;fill-rule:nonzero;stroke:none"
             id="path232" /></g><g
           id="g234"
           transform="translate(345.5122,245.5986)"><path
             d="m 0,0 c 1.328,-1.513 4.253,-3.194 6.649,-3.194 2.783,0 4.795,1.6 4.795,4.341 0,5.167 -12.477,4.45 -12.477,13.58 0,5.321 4.415,8.553 8.753,8.553 2.81,0 4.941,-1.033 6.124,-2.054 v -5.829 c -1.064,1.567 -3.352,3.66 -6.085,3.66 -2.553,0 -4.185,-1.708 -4.185,-4.147 0,-5.589 12.588,-4.634 12.588,-13.574 0,-5.59 -4.676,-8.861 -9.659,-8.861 -2.779,0 -5.098,1.06 -6.503,2.315 z"
             style="fill:#100f0d;fill-opacity:1;fill-rule:nonzero;stroke:none"
             id="path236" /></g><g
           id="g238"
           transform="translate(373.8403,268.4941)"><path
             d="M 0,0 V -14.715 L 13.053,0 h 6.088 L 5.287,-15.019 19.023,-29.891 H 12.865 L 0,-15.629 V -29.891 H -4.553 V 0 Z"
             style="fill:#100f0d;fill-opacity:1;fill-rule:nonzero;stroke:none"
             id="path240" /></g><g
           id="g242"
           transform="translate(412.8228,238.6035)"><path
             d="M 0,0 H -13.947 V 29.891 H 0 v -4.259 h -9.391 v -8.564 h 6.658 V 12.857 H -9.391 V 4.223 l 9.391,0 z"
             style="fill:#100f0d;fill-opacity:1;fill-rule:nonzero;stroke:none"
             id="path244" /></g><g
           id="g246"
           transform="translate(417.9595,232.0615)"><path
             d="M 0,0 C 2.665,2.275 3.961,5.479 4,9.241 V 36.433 H 8.596 V 9.283 C 8.596,3.92 6.584,-0.414 2.929,-3.421 Z"
             style="fill:#100f0d;fill-opacity:1;fill-rule:nonzero;stroke:none"
             id="path248" /></g><g
           id="g250"
           transform="translate(453.9434,254.0059)"><path
             d="m 0,0 h 1.747 c 3.95,0 6.426,1.642 6.426,5.248 0,3.467 -2.396,4.981 -6.313,4.981 H 0 Z M 4.182,-3.988 C 3.34,-4.107 2.467,-4.185 1.555,-4.185 H 0 v -11.217 h -4.569 v 29.89 h 6.277 c 6.882,0 11.379,-2.805 11.379,-9.312 0,-3.468 -1.649,-6.013 -4.265,-7.572 L 20.65,-15.402 h -6.426 z"
             style="fill:#100f0d;fill-opacity:1;fill-rule:nonzero;stroke:none"
             id="path252" /></g><g
           id="g254"
           transform="translate(491.4121,238.6035)"><path
             d="M 0,0 H -13.97 V 29.891 H 0 v -4.259 h -9.417 v -8.564 h 6.665 V 12.857 H -9.417 V 4.223 l 9.417,0 z"
             style="fill:#100f0d;fill-opacity:1;fill-rule:nonzero;stroke:none"
             id="path256" /></g><g
           id="g258"
           transform="translate(503.6855,254.0059)"><path
             d="m 0,0 h 1.751 c 3.947,0 6.428,1.642 6.428,5.248 0,3.467 -2.4,4.981 -6.305,4.981 H 0 Z m 0,-4.185 v -11.217 h -4.576 v 29.89 h 6.289 c 6.876,0 11.38,-2.805 11.38,-9.312 0,-6.051 -5.114,-9.361 -11.538,-9.361 z"
             style="fill:#100f0d;fill-opacity:1;fill-rule:nonzero;stroke:none"
             id="path260" /></g><g
           id="g262"
           transform="translate(526.6592,268.4941)"><path
             d="m 0,0 v -14.305 c 0,-6.157 2.764,-12.011 9.667,-12.011 5.693,0 9.604,4.526 9.604,11.988 V 0 h 4.578 v -14.305 c 0,-9.693 -5.851,-16.158 -14.182,-16.158 -9.905,0 -14.228,6.731 -14.228,16.135 V 0 Z"
             style="fill:#100f0d;fill-opacity:1;fill-rule:nonzero;stroke:none"
             id="path264" /></g><g
           id="g266"
           transform="translate(565.2656,251.9131)"><path
             d="m 0,0 h -1.827 v -9.087 h 1.665 c 4.761,0 7.844,0.61 7.844,4.45 C 7.682,-0.794 4.399,0 0,0 m -0.568,4.224 c 3.532,0 5.574,1.22 5.574,3.984 0,3.394 -3.34,4.15 -6.189,4.15 H -1.827 V 4.224 Z M -6.385,-13.31 v 29.891 h 4.242 c 6.696,0 11.786,-2.092 11.786,-8.135 0,-2.963 -1.588,-4.687 -4.361,-5.52 4.307,-0.795 7.156,-3.114 7.156,-7.487 0,-7.348 -7.033,-8.749 -13.168,-8.749 z"
             style="fill:#100f0d;fill-opacity:1;fill-rule:nonzero;stroke:none"
             id="path268" /></g><g
           id="g270"
           transform="translate(601.0762,238.6035)"><path
             d="m 0,0 h -15.774 v 29.891 h 4.556 V 4.223 L 0,4.223 Z"
             style="fill:#100f0d;fill-opacity:1;fill-rule:nonzero;stroke:none"
             id="path272" /></g><path
           d="m 610.866,238.604 h -4.574 v 29.891 h 4.574 z"
           style="fill:#100f0d;fill-opacity:1;fill-rule:nonzero;stroke:none"
           id="path274" /><g
           id="g276"
           transform="translate(625.7002,268.4941)"><path
             d="M 0,0 V -14.715 L 13.045,0 h 6.07 L 5.283,-15.019 19.02,-29.891 H 12.846 L 0,-15.629 V -29.891 H -4.584 V 0 Z"
             style="fill:#100f0d;fill-opacity:1;fill-rule:nonzero;stroke:none"
             id="path278" /></g><g
           id="g280"
           transform="translate(660.7627,238.6035)"><path
             d="m 0,0 h -4.572 v 11.866 l -9.844,18.025 h 5.245 l 7.155,-13.494 6.833,13.494 h 5.245 L 0,11.785 Z"
             style="fill:#100f0d;fill-opacity:1;fill-rule:nonzero;stroke:none"
             id="path282" /></g><g
           id="g284"
           transform="translate(144.2402,363.8242)"><path
             d="m 0,0 c -0.222,-10.804 -3.391,-21.453 -9.421,-31.617 l -0.222,-0.378 -0.181,0.401 c -1.471,3.277 -4.259,7.484 -9.138,8.883 -4.026,1.169 -8.029,0.098 -11.693,-3.07 l -0.246,-0.216 -0.119,0.304 c -0.896,2.391 -3.191,7.008 -7.943,9.492 -2.62,1.504 -5.881,1.68 -7.126,1.68 -1.374,0 -4.508,-0.04 -7.48,-1.71 -4.837,-2.466 -7.185,-6.961 -8.109,-9.294 l -0.125,-0.292 -0.239,0.203 c -1.802,1.553 -4.721,3.418 -8.347,3.418 -1.368,0 -2.758,-0.264 -4.124,-0.795 -3.823,-1.465 -6.587,-5.159 -8.234,-8.001 l -0.196,-0.333 -0.201,0.325 c -5.869,9.915 -9.08,20.461 -9.527,31.341 -0.226,5.497 -0.344,11.274 -0.344,17.159 0,18.166 1.077,32.838 1.542,38.306 l 0.021,0.209 h 90.66 l 0.005,-0.222 C -0.501,49.877 0.145,34.063 0.145,15.216 0.145,9.953 0.104,4.842 0,0 m -12.478,-36.356 c -8.579,-12.319 -20.793,-22.355 -33.491,-27.532 l -0.091,-0.033 -0.087,0.033 c -13.234,5.779 -25.694,16.177 -34.191,28.503 l -0.069,0.114 0.052,0.123 c 0.727,1.585 3.398,6.915 7.284,8.399 0.91,0.356 1.842,0.531 2.751,0.531 4.662,0 7.675,-4.517 7.799,-4.706 l 2.852,-4.301 0.815,5.095 c 0.075,0.473 1.977,11.588 12.765,11.588 10.289,0 12.12,-11.311 12.194,-11.789 l 0.736,-5.016 2.91,4.152 c 0.14,0.211 3.48,4.908 8.177,4.908 0.671,0 1.342,-0.094 2.002,-0.288 4.839,-1.397 6.947,-7.168 7.63,-9.588 l 0.032,-0.101 z M 3.434,58.311 3.323,60.356 h -98.734 l -0.194,-1.952 c -0.028,-0.264 -2.684,-27.682 -1.413,-58.248 1.38,-33.183 26.927,-58.741 50.09,-68.462 l 0.806,-0.327 0.819,0.313 c 23.573,9.123 48.985,36.146 49.645,68.233 0.617,30.265 -0.89,58.129 -0.908,58.398"
             style="fill:#100f0d;fill-opacity:1;fill-rule:nonzero;stroke:none"
             id="path286" /></g><g
           id="g288"
           transform="translate(97.8066,411.2295)"><path
             d="M 0,0 C 0.487,-0.023 4.932,0.221 4.932,0.221 2.211,-13.1 2.546,-18.817 2.546,-18.817 c 11.074,-0.671 21.218,2.233 21.218,2.233 -0.243,-2.317 -0.01,-9.629 -0.01,-9.629 -10.06,2.784 -21.17,2.228 -21.17,2.228 v -17.308 c 18.879,-0.488 26.8,2.195 26.8,2.195 -0.284,-3.395 0.02,-9.664 0.02,-9.664 -12.529,3.018 -26.82,2.241 -26.82,2.241 V -65.09 h 0.099 3.719 0.084 l -0.007,14.681 c 17.164,0.488 27.163,-3.727 27.163,-3.727 -1.051,13.594 0,20.403 0,20.403 -11.006,-4.268 -27.163,-3.726 -27.163,-3.726 l 0.03,9.549 c 10.091,0.396 21.493,-3.689 21.493,-3.689 -0.996,11.097 0,20.365 0,20.365 -9.207,-3.598 -21.34,-3.75 -21.34,-3.75 C 6.57,-10.38 9.916,4.489 9.916,4.489 6.906,4.192 0,3.907 0,3.907 c 0,0 -6.906,0.285 -9.916,0.582 0,0 3.346,-14.869 3.254,-19.473 0,0 -12.133,0.152 -21.34,3.75 0,0 0.996,-9.268 0,-20.365 0,0 11.402,4.085 21.493,3.689 l 0.03,-9.549 c 0,0 -16.157,-0.542 -27.163,3.726 0,0 1.051,-6.809 0,-20.403 0,0 9.999,4.215 27.163,3.727 L -6.486,-65.09 h 0.085 3.729 0.088 v 18.569 c 0,0 -14.291,0.777 -26.82,-2.241 0,0 0.304,6.269 0.02,9.664 0,0 7.921,-2.683 26.8,-2.195 v 17.308 c 0,0 -11.11,0.556 -21.17,-2.228 0,0 0.233,7.312 -0.01,9.629 0,0 10.144,-2.904 21.218,-2.233 0,0 0.336,5.717 -2.386,19.038 0,0 4.445,-0.244 4.932,-0.221"
             style="fill:#100f0d;fill-opacity:1;fill-rule:nonzero;stroke:none"
             id="path290" /></g></g></g></g></svg>
