<svg version="1.1" id="svg2" xml:space="preserve" sodipodi:docname="logo MZV cierne ENG linka.eps" xmlns:inkscape="http://www.inkscape.org/namespaces/inkscape" xmlns:sodipodi="http://sodipodi.sourceforge.net/DTD/sodipodi-0.dtd" xmlns="http://www.w3.org/2000/svg" xmlns:svg="http://www.w3.org/2000/svg" viewBox="57.38 250.33 1024.1 284.75" width="1024" height="285">
	<defs id="defs6"/>
	<sodipodi:namedview id="namedview4" pagecolor="#ffffff" bordercolor="#666666" borderopacity="1.0" inkscape:pageshadow="2" inkscape:pageopacity="0.0" inkscape:pagecheckerboard="0"/>
	<g id="g8" inkscape:groupmode="layer" inkscape:label="ink_ext_XXXXXX" transform="matrix(1.3333333,0,0,-1.3333333,0,793.70667)">
		<g id="g10" transform="scale(0.1)">
			<path d="m 1902.28,3522 h 2393.47 v 52.2891 H 1902.28 Z" style="" id="path12" data-darkreader-inline-fill="" data-darkreader-inline-stroke=""/>
			<path d="m 2247.4,3728.52 v 228.29 l -118.07,-228.29 h -46.62 l -114.58,224.37 v -224.37 h -52.28 v 342.42 h 56.63 l 135.05,-274.03 139.87,274.03 h 52.26 v -342.42" style="" id="path14" data-darkreader-inline-fill="" data-darkreader-inline-stroke=""/>
			<path d="m 2417.27,3728.53 h 52.2891 v 342.418 H 2417.27 Z" style="" id="path16" data-darkreader-inline-fill="" data-darkreader-inline-stroke=""/>
			<path d="m 2926.58,4070.94 v -342.41 h -42.28 l -244.84,254.85 v -254.85 h -52.26 v 342.41 h 42.68 l 244.41,-255.3 v 255.3" style="" id="path18" data-darkreader-inline-fill="" data-darkreader-inline-stroke=""/>
			<path d="m 3044.18,3728.53 h 52.2695 v 342.418 H 3044.18 Z" style="" id="path20" data-darkreader-inline-fill="" data-darkreader-inline-stroke=""/>
			<path d="m 3204.07,3808.69 c 15.24,-17.43 48.79,-36.59 76.24,-36.59 31.81,0 54.91,18.3 54.91,49.65 0,59.25 -142.92,50.98 -142.92,155.55 0,60.98 50.54,98 100.21,98 32.24,0 56.62,-11.77 70.13,-23.52 v -66.65 c -12.19,17.86 -38.33,41.82 -69.7,41.82 -29.19,0 -47.93,-19.6 -47.93,-47.48 0,-64.04 144.21,-53.15 144.21,-155.53 0,-64.06 -53.58,-101.52 -110.64,-101.52 -31.82,0 -58.4,12.21 -74.51,26.58" style="" id="path22" data-darkreader-inline-fill="" data-darkreader-inline-stroke=""/>
			<path d="m 3415.34,4070.94 h 275.34 v -48.78 h -111.53 v -293.63 h -52.28 v 293.63 h -111.53" style="" id="path24" data-darkreader-inline-fill="" data-darkreader-inline-stroke=""/>
			<path d="m 3799.57,3904.96 h 20.04 c 45.31,0 73.64,18.72 73.64,60.13 0,39.63 -27.46,57.08 -72.33,57.08 h -21.35 z m 47.92,-45.75 c -9.58,-1.3 -19.6,-2.17 -30.06,-2.17 h -17.86 v -128.52 h -52.27 v 342.42 h 71.88 c 78.86,0 130.26,-32.24 130.26,-106.74 0,-39.63 -18.73,-68.82 -48.8,-86.69 l 135.5,-148.99 h -73.64" style="" id="path26" data-darkreader-inline-fill="" data-darkreader-inline-stroke=""/>
			<path d="m 4183.81,3728.52 h -52.28 v 135.93 l -112.84,206.49 h 60.13 l 81.88,-154.65 78.43,154.65 h 60.12 l -115.44,-207.37" style="" id="path28" data-darkreader-inline-fill="" data-darkreader-inline-stroke=""/>
			<path d="m 2072.25,3002.74 c 76.69,1.31 123.74,59.7 122.42,132.44 -1.74,74.51 -48.36,121.54 -120.65,121.98 -88.45,-0.44 -121.15,-76.23 -120.69,-126.78 -1.32,-58.82 31.37,-126.75 118.92,-127.64 m 1.77,302.77 c 100.62,-0.86 172.5,-64.9 174.67,-168.14 1.75,-101.08 -70.57,-181.23 -177.3,-183 -121.55,1.31 -173.83,94.55 -172.51,176.01 -0.46,70.58 52.27,174.71 175.14,175.13" style="" id="path30" data-darkreader-inline-fill="" data-darkreader-inline-stroke=""/>
			<path d="m 2325.36,2960.93 v 342.43 h 159.89 v -48.8 h -107.6 v -98.88 h 75.8 v -48.39 h -75.8 v -146.36" style="" id="path32" data-darkreader-inline-fill="" data-darkreader-inline-stroke=""/>
			<path d="m 2719.62,2960.93 v 342.43 h 159.87 v -48.8 H 2771.9 v -98.88 h 75.81 v -48.39 h -75.81 v -146.36" style="" id="path34" data-darkreader-inline-fill="" data-darkreader-inline-stroke=""/>
			<path d="m 3102.54,3002.74 c 76.68,1.31 123.73,59.7 122.41,132.44 -1.74,74.51 -48.35,121.54 -120.65,121.98 -88.44,-0.44 -121.14,-76.23 -120.68,-126.78 -1.32,-58.82 31.36,-126.75 118.92,-127.64 m 1.76,302.77 c 100.63,-0.86 172.51,-64.9 174.68,-168.14 1.75,-101.08 -70.57,-181.23 -177.3,-183 -121.55,1.31 -173.82,94.55 -172.52,176.01 -0.45,70.58 52.27,174.71 175.14,175.13" style="" id="path36" data-darkreader-inline-fill="" data-darkreader-inline-stroke=""/>
			<path d="m 3405.74,3137.36 h 20.04 c 45.31,0 73.63,18.72 73.63,60.12 0,39.64 -27.45,57.08 -72.32,57.08 h -21.35 z m 47.92,-45.75 c -9.58,-1.3 -19.6,-2.17 -30.05,-2.17 h -17.87 v -128.52 h -52.27 v 342.42 h 71.87 c 78.86,0 130.27,-32.24 130.27,-106.74 0,-39.63 -18.73,-68.82 -48.82,-86.7 l 135.51,-148.98 h -73.63" style="" id="path38" data-darkreader-inline-fill="" data-darkreader-inline-stroke=""/>
			<path d="m 3839.2,2960.93 h -159.88 v 342.43 h 159.88 v -48.8 h -107.59 v -98.02 h 76.23 v -48.37 h -76.23 v -98.89 h 107.59" style="" id="path40" data-darkreader-inline-fill="" data-darkreader-inline-stroke=""/>
			<path d="m 3936.37,2960.93 h 52.2695 v 342.43 H 3936.37 Z" style="" id="path42" data-darkreader-inline-fill="" data-darkreader-inline-stroke=""/>
			<path d="m 4071.41,3130.39 c 0,70.58 51.4,177.33 179.5,177.33 38.34,0 80.58,-8.28 104.56,-23.1 v -61.87 c -24.82,20.93 -58.82,36.61 -104.56,36.61 -93.24,0 -125.05,-78.43 -125.05,-128.97 0,-55.32 32.24,-126.77 120.68,-126.77 33.13,0 52.29,5.23 74.06,13.94 v 100.2 h 52.29 v -124.58 c -32.25,-22.25 -74.49,-37.93 -126.35,-37.93 -122.85,0.44 -175.13,97.58 -175.13,174.72" style="" id="path44" data-darkreader-inline-fill="" data-darkreader-inline-stroke=""/>
			<path d="m 4799.4,3303.34 v -342.42 h -42.29 l -244.84,254.86 v -254.86 h -52.26 v 342.42 h 42.68 l 244.42,-255.3 v 255.3" style="" id="path46" data-darkreader-inline-fill="" data-darkreader-inline-stroke=""/>
			<path d="m 1999.49,2618.28 h 81.04 l -40.09,115.46 z m 67.97,177.73 126.77,-342.4 h -56.19 l -40.51,116.31 h -115.02 l -40.95,-116.31 h -56.21 l 131.13,342.4" style="" id="path48" data-darkreader-inline-fill="" data-darkreader-inline-stroke=""/>
			<path d="m 2590.23,2796.02 v -342.4 h -42.28 l -244.83,254.86 v -254.86 h -52.27 v 342.4 h 42.69 l 244.41,-255.28 v 255.28" style="" id="path50" data-darkreader-inline-fill="" data-darkreader-inline-stroke=""/>
			<path d="m 2754.89,2501.96 h 20.91 c 99.32,0 156.81,31.81 156.81,124.59 0,89.3 -59.67,120.69 -158.14,120.69 h -19.58 z m -52.29,-48.35 v 342.4 h 60.99 c 139.86,0 223.95,-47.47 223.95,-172.48 0,-118.54 -84.09,-169.92 -223.07,-169.92" style="" id="path52" data-darkreader-inline-fill="" data-darkreader-inline-stroke=""/>
			<path d="m 3393.54,2453.61 h -159.89 v 342.4 h 159.89 v -48.75 h -107.6 v -98.06 h 76.25 v -48.36 h -76.25 v -98.88 h 107.6" style="" id="path54" data-darkreader-inline-fill="" data-darkreader-inline-stroke=""/>
			<path d="m 3525.56,2796.02 v -163.81 c 0,-70.56 31.8,-137.65 110.65,-137.65 65.35,0 110.22,51.83 110.22,137.23 v 164.23 h 52.28 v -163.81 c 0,-111.08 -67.08,-185.13 -162.5,-185.13 -113.27,0 -162.94,77.11 -162.94,184.71 v 164.23" style="" id="path56" data-darkreader-inline-fill="" data-darkreader-inline-stroke=""/>
			<path d="m 3946.8,2630.03 h 20.04 c 45.31,0 73.64,18.75 73.64,60.15 0,39.64 -27.46,57.09 -72.33,57.09 h -21.35 z m 47.92,-45.73 c -9.58,-1.31 -19.61,-2.17 -30.05,-2.17 h -17.87 v -128.52 h -52.27 v 342.41 h 71.88 c 78.86,0 130.26,-32.23 130.26,-106.74 0,-39.64 -18.73,-68.83 -48.8,-86.68 l 135.49,-148.99 h -73.63" style="" id="path58" data-darkreader-inline-fill="" data-darkreader-inline-stroke=""/>
			<path d="m 4365.89,2495.41 c 76.69,1.31 123.73,59.7 122.44,132.45 -1.76,74.51 -48.37,121.57 -120.68,121.97 -88.45,-0.4 -121.13,-76.22 -120.68,-126.75 -1.32,-58.84 31.37,-126.77 118.92,-127.67 m 1.76,302.77 c 100.64,-0.86 172.52,-64.89 174.69,-168.15 1.75,-101.05 -70.57,-181.21 -177.31,-182.97 -121.55,1.31 -173.82,94.53 -172.51,176.02 -0.45,70.57 52.27,174.69 175.13,175.1" style="" id="path60" data-darkreader-inline-fill="" data-darkreader-inline-stroke=""/>
			<path d="m 4669.09,2630.03 h 20.04 c 45.31,0 73.64,18.75 73.64,60.15 0,39.64 -27.45,57.09 -72.32,57.09 h -21.36 z m 0,-47.9 v -128.52 h -52.28 v 342.41 h 71.89 c 78.86,0 130.26,-32.23 130.26,-106.74 0,-69.26 -58.38,-107.15 -132,-107.15" style="" id="path62" data-darkreader-inline-fill="" data-darkreader-inline-stroke=""/>
			<path d="m 5059.44,2453.61 h -159.9 v 342.4 h 159.9 v -48.75 h -107.6 v -98.06 h 76.23 v -48.36 h -76.23 v -98.88 h 107.6" style="" id="path64" data-darkreader-inline-fill="" data-darkreader-inline-stroke=""/>
			<path d="m 5231.52,2618.28 h 81.04 l -40.09,115.46 z m 67.95,177.73 126.78,-342.4 h -56.19 l -40.51,116.31 h -115.02 l -40.96,-116.31 h -56.19 l 131.12,342.4" style="" id="path66" data-darkreader-inline-fill="" data-darkreader-inline-stroke=""/>
			<path d="m 5826.62,2796.02 v -342.4 h -42.29 l -244.84,254.86 v -254.86 h -52.27 v 342.4 h 42.69 l 244.42,-255.28 v 255.28" style="" id="path68" data-darkreader-inline-fill="" data-darkreader-inline-stroke=""/>
			<path d="m 6154.18,2618.28 h 81.04 l -40.08,115.46 z m 67.96,177.73 126.79,-342.4 h -56.2 l -40.51,116.31 h -115.01 l -40.96,-116.31 h -56.2 l 131.12,342.4" style="" id="path70" data-darkreader-inline-fill="" data-darkreader-inline-stroke=""/>
			<path d="m 6412.09,2453.61 v 342.4 h 159.88 v -48.75 h -107.6 v -98.93 h 75.8 v -48.35 h -75.8 v -146.37" style="" id="path72" data-darkreader-inline-fill="" data-darkreader-inline-stroke=""/>
			<path d="m 6640.8,2453.61 v 342.4 h 159.85 v -48.75 h -107.57 v -98.93 h 75.8 v -48.35 h -75.8 v -146.37" style="" id="path74" data-darkreader-inline-fill="" data-darkreader-inline-stroke=""/>
			<path d="m 6929.19,2618.28 h 81.04 l -40.07,115.46 z m 67.98,177.73 126.77,-342.4 h -56.21 l -40.5,116.31 h -115.01 l -40.96,-116.31 h -56.2 l 131.12,342.4" style="" id="path76" data-darkreader-inline-fill="" data-darkreader-inline-stroke=""/>
			<path d="m 7180.53,2453.61 h 52.3008 v 342.402 H 7180.53 Z" style="" id="path78" data-darkreader-inline-fill="" data-darkreader-inline-stroke=""/>
			<path d="m 7389.68,2630.03 h 20.04 c 45.3,0 73.63,18.75 73.63,60.15 0,39.64 -27.45,57.09 -72.32,57.09 h -21.35 z m 47.91,-45.73 c -9.57,-1.31 -19.58,-2.17 -30.04,-2.17 h -17.87 v -128.52 h -52.29 v 342.41 h 71.9 c 78.85,0 130.25,-32.23 130.25,-106.74 0,-39.64 -18.73,-68.83 -48.78,-86.68 l 135.48,-148.99 h -73.65" style="" id="path80" data-darkreader-inline-fill="" data-darkreader-inline-stroke=""/>
			<path d="m 7659.77,2533.77 c 15.26,-17.44 48.8,-36.6 76.25,-36.6 31.81,0 54.9,18.3 54.9,49.67 0,59.25 -142.91,50.96 -142.91,155.53 0,60.97 50.54,98.02 100.21,98.02 32.23,0 56.62,-11.79 70.13,-23.53 v -66.66 c -12.2,17.85 -38.34,41.84 -69.7,41.84 -29.19,0 -47.92,-19.61 -47.92,-47.49 0,-64.04 144.2,-53.15 144.2,-155.55 0,-64.03 -53.59,-101.49 -110.66,-101.49 -31.8,0 -58.38,12.2 -74.5,26.57" style="" id="path82" data-darkreader-inline-fill="" data-darkreader-inline-stroke=""/>
			<path d="m 2072.25,1988.1 c 76.69,1.31 123.74,59.69 122.42,132.44 -1.74,74.51 -48.36,121.56 -120.65,121.97 -88.45,-0.41 -121.15,-76.22 -120.69,-126.75 -1.32,-58.84 31.37,-126.77 118.92,-127.66 m 1.77,302.76 c 100.62,-0.86 172.5,-64.89 174.67,-168.14 1.75,-101.06 -70.57,-181.21 -177.3,-182.98 -121.55,1.31 -173.83,94.54 -172.51,176.02 -0.46,70.58 52.27,174.69 175.14,175.1" style="" id="path84" data-darkreader-inline-fill="" data-darkreader-inline-stroke=""/>
			<path d="m 2325.36,1946.29 v 342.4 h 159.89 v -48.75 h -107.6 v -98.92 h 75.8 v -48.36 h -75.8 v -146.37" style="" id="path86" data-darkreader-inline-fill="" data-darkreader-inline-stroke=""/>
			<path d="m 2695.65,2288.69 h 275.33 v -48.77 h -111.52 v -293.63 h -52.3 v 293.63 h -111.51" style="" id="path88" data-darkreader-inline-fill="" data-darkreader-inline-stroke=""/>
			<path d="m 3266.78,2288.69 h 52.29 v -342.4 h -52.29 v 146.81 h -173.83 v -146.81 h -52.28 v 342.4 h 52.28 v -147.24 h 173.83" style="" id="path90" data-darkreader-inline-fill="" data-darkreader-inline-stroke=""/>
			<path d="m 3594.38,1946.29 h -159.89 v 342.4 h 159.89 v -48.75 h -107.6 v -98.06 h 76.24 v -48.36 h -76.24 v -98.88 h 107.6" style="" id="path92" data-darkreader-inline-fill="" data-darkreader-inline-stroke=""/>
			<path d="m 3842.7,2026.45 c 15.25,-17.44 48.78,-36.6 76.24,-36.6 31.81,0 54.9,18.3 54.9,49.66 0,59.26 -142.91,50.97 -142.91,155.53 0,60.98 50.55,98.02 100.21,98.02 32.24,0 56.62,-11.79 70.13,-23.53 v -66.65 c -12.2,17.85 -38.36,41.83 -69.7,41.83 -29.19,0 -47.92,-19.61 -47.92,-47.49 0,-64.03 144.2,-53.14 144.2,-155.55 0,-64.03 -53.58,-101.49 -110.65,-101.49 -31.81,0 -58.39,12.2 -74.5,26.57" style="" id="path94" data-darkreader-inline-fill="" data-darkreader-inline-stroke=""/>
			<path d="m 4295.75,1946.29 h -180.78 v 342.4 h 52.26 v -294.05 h 128.52" style="" id="path96" data-darkreader-inline-fill="" data-darkreader-inline-stroke=""/>
			<path d="m 4494.41,1988.1 c 76.69,1.31 123.73,59.69 122.43,132.44 -1.76,74.51 -48.37,121.56 -120.67,121.97 -88.46,-0.41 -121.13,-76.22 -120.69,-126.75 -1.31,-58.84 31.37,-126.77 118.93,-127.66 m 1.76,302.76 c 100.63,-0.86 172.51,-64.89 174.68,-168.14 1.75,-101.06 -70.56,-181.21 -177.3,-182.98 -121.55,1.31 -173.83,94.54 -172.52,176.02 -0.45,70.58 52.27,174.69 175.14,175.1" style="" id="path98" data-darkreader-inline-fill="" data-darkreader-inline-stroke=""/>
			<path d="m 4854.71,2006.4 102.38,282.29 h 56.18 l -132.88,-342.4 h -54.87 l -123.73,342.4 h 56.18" style="" id="path100" data-darkreader-inline-fill="" data-darkreader-inline-stroke=""/>
			<path d="m 5140.47,2110.96 h 81.04 l -40.07,115.46 z m 67.97,177.73 126.78,-342.4 h -56.21 l -40.5,116.32 H 5123.5 l -40.96,-116.32 h -56.2 l 131.12,342.4" style="" id="path102" data-darkreader-inline-fill="" data-darkreader-inline-stroke=""/>
			<path d="m 5439.74,2288.69 v -168.6 l 149.44,168.6 h 69.71 l -158.58,-172.08 157.28,-170.32 H 5587 l -147.26,163.38 v -163.38 h -52.26 v 342.4" style="" id="path104" data-darkreader-inline-fill="" data-darkreader-inline-stroke=""/>
			<path d="m 5933.31,2122.71 h 20.05 c 45.3,0 73.63,18.74 73.63,60.14 0,39.64 -27.45,57.09 -72.32,57.09 h -21.36 z m 47.94,-45.74 c -9.59,-1.31 -19.62,-2.17 -30.06,-2.17 h -17.88 v -128.52 h -52.26 v 342.41 h 71.88 c 78.86,0 130.25,-32.23 130.25,-106.74 0,-39.63 -18.72,-68.82 -48.81,-86.67 l 135.51,-149 h -73.63" style="" id="path106" data-darkreader-inline-fill="" data-darkreader-inline-stroke=""/>
			<path d="m 6362.44,1946.29 h -159.9 v 342.4 h 159.9 v -48.75 h -107.61 v -98.06 h 76.24 v -48.36 h -76.24 v -98.88 h 107.61" style="" id="path108" data-darkreader-inline-fill="" data-darkreader-inline-stroke=""/>
			<path d="m 6520.57,2122.71 h 20.04 c 45.3,0 73.63,18.74 73.63,60.14 0,39.64 -27.45,57.09 -72.32,57.09 h -21.35 z m 0,-47.91 v -128.52 h -52.27 v 342.41 h 71.87 c 78.86,0 130.27,-32.23 130.27,-106.74 0,-69.25 -58.41,-107.15 -132.01,-107.15" style="" id="path110" data-darkreader-inline-fill="" data-darkreader-inline-stroke=""/>
			<path d="m 6783.69,2288.69 v -163.81 c 0,-70.55 31.81,-137.65 110.66,-137.65 65.34,0 110.22,51.85 110.22,137.24 v 164.22 h 52.28 v -163.81 c 0,-111.07 -67.1,-185.13 -162.5,-185.13 -113.27,0 -162.94,77.12 -162.94,184.72 v 164.22" style="" id="path112" data-darkreader-inline-fill="" data-darkreader-inline-stroke=""/>
			<path d="m 7225.89,2098.76 h -20.94 v -104.1 h 19.19 c 54.46,0 89.75,6.94 89.75,50.96 0,44.01 -37.48,53.14 -88,53.14 m -6.53,48.35 c 40.5,0 64.03,13.96 64.03,45.73 0,38.78 -38.34,47.5 -71.02,47.5 h -7.42 v -93.23 z m -66.69,-200.82 v 342.42 h 48.82 c 76.66,0 135.03,-23.97 135.03,-93.24 0,-33.97 -18.3,-53.59 -50.08,-63.17 49.24,-9.14 81.9,-35.71 81.9,-85.83 0,-84.09 -80.6,-100.18 -150.75,-100.18" style="" id="path114" data-darkreader-inline-fill="" data-darkreader-inline-stroke=""/>
			<path d="m 7631.9,1946.29 h -180.81 v 342.4 h 52.29 v -294.05 h 128.52" style="" id="path116" data-darkreader-inline-fill="" data-darkreader-inline-stroke=""/>
			<path d="m 7691.59,1946.29 h 52.2617 v 342.402 H 7691.59 Z" style="" id="path118" data-darkreader-inline-fill="" data-darkreader-inline-stroke=""/>
			<path d="m 7827.07,2115.75 c -0.46,70.59 52.27,177.31 175.13,177.31 48.36,0 84.94,-13.5 108.91,-32.66 v -61.87 c -24.83,24.84 -55.33,46.19 -108.91,46.19 -88.45,0 -121.12,-78.45 -120.69,-128.97 0,-55.32 32.24,-126.77 120.69,-126.77 45.74,0 84.51,16.12 108.91,39.19 v -54.9 c -27.04,-20.02 -57.08,-32.68 -108.91,-32.68 -122.86,0.47 -175.13,97.61 -175.13,174.72" style="" id="path120" data-darkreader-inline-fill="" data-darkreader-inline-stroke=""/>
			<path d="m 1537.3,3385.77 c -2.53,-122.82 -38.55,-243.88 -107.11,-359.43 l -2.51,-4.31 -2.06,4.57 c -16.73,37.26 -48.42,85.08 -103.89,100.98 -45.77,13.29 -91.28,1.11 -132.93,-34.9 l -2.8,-2.45 -1.35,3.45 c -10.18,27.19 -36.28,79.68 -90.29,107.91 -29.78,17.1 -66.86,19.1 -81.02,19.1 -15.625,0 -51.246,-0.45 -85.035,-19.44 -54.989,-28.03 -81.68,-79.13 -92.192,-105.65 l -1.418,-3.33 -2.711,2.31 c -20.5,17.66 -53.679,38.86 -94.898,38.86 -15.551,0 -31.359,-3.01 -46.891,-9.03 -43.461,-16.67 -74.879,-58.65 -93.601,-90.97 l -2.219,-3.78 -2.301,3.69 c -66.719,112.72 -103.211,232.62 -108.308,356.3 -2.563,62.49 -3.911,128.17 -3.911,195.07 0,206.51 12.239,373.32 17.54,435.48 l 0.242,2.37 H 1528.3 l 0.06,-2.51 c 3.24,-67.26 10.6,-247.04 10.6,-461.31 0,-59.83 -0.48,-117.94 -1.66,-172.98 m -141.85,-413.31 c -97.53,-140.05 -236.38,-254.14 -380.74,-312.99 l -1.04,-0.38 -0.99,0.38 c -150.453,65.69 -292.106,183.9 -388.696,324.04 l -0.789,1.29 0.59,1.4 c 8.262,18.02 38.641,78.61 82.809,95.49 10.351,4.04 20.941,6.02 31.281,6.02 52.988,0 87.238,-51.35 88.66,-53.5 l 32.418,-48.89 9.274,57.93 c 0.839,5.37 22.457,131.72 145.113,131.72 116.98,0 137.79,-128.58 138.63,-134.01 l 8.36,-57.03 33.1,47.21 c 1.58,2.39 39.56,55.79 92.95,55.79 7.63,0 15.23,-1.07 22.76,-3.27 55.01,-15.88 78.97,-81.48 86.73,-109 l 0.37,-1.16 z m 180.89,1076.21 -1.26,23.25 H 452.625 l -2.211,-22.19 c -0.309,-3 -30.508,-314.7 -16.059,-662.18 15.68,-377.24 306.122,-667.8 569.455,-778.3 l 9.15,-3.72 9.32,3.55 c 267.98,103.72 556.88,410.93 564.38,775.7 7.02,344.08 -10.11,660.84 -10.32,663.89" style="" id="path122" data-darkreader-inline-fill="" data-darkreader-inline-stroke=""/>
			<path d="m 1009.42,3924.7 c 5.54,-0.26 56.06,2.51 56.06,2.51 -30.93,-151.44 -27.11,-216.44 -27.11,-216.44 125.89,-7.62 241.22,25.39 241.22,25.39 -2.78,-26.34 -0.12,-109.46 -0.12,-109.46 -114.37,31.65 -240.67,25.33 -240.67,25.33 v -196.77 c 214.62,-5.55 304.67,24.95 304.67,24.95 -3.23,-38.58 0.23,-109.86 0.23,-109.86 -142.44,34.31 -304.9,25.47 -304.9,25.47 v -211.09 h 1.12 42.29 0.95 l -0.09,166.9 c 195.13,5.55 308.81,-42.36 308.81,-42.36 -11.95,154.53 0,231.94 0,231.94 -125.12,-48.52 -308.81,-42.36 -308.81,-42.36 l 0.35,108.56 c 114.72,4.51 244.34,-41.94 244.34,-41.94 -11.32,126.16 0,231.52 0,231.52 -104.67,-40.9 -242.61,-42.63 -242.61,-42.63 -1.04,52.33 37,221.38 37,221.38 -34.22,-3.38 -112.73,-6.62 -112.73,-6.62 0,0 -78.51,3.24 -112.732,6.62 0,0 38.042,-169.05 37,-221.38 0,0 -137.938,1.73 -242.598,42.63 0,0 11.308,-105.36 0,-231.52 0,0 129.609,46.45 244.328,41.94 l 0.352,-108.56 c 0,0 -183.692,-6.16 -308.809,42.36 0,0 11.949,-77.41 0,-231.94 0,0 113.687,47.91 308.809,42.36 l -0.09,-166.9 h 0.968 42.391 1 v 211.09 c 0,0 -162.461,8.84 -304.898,-25.47 0,0 3.457,71.28 0.226,109.86 0,0 90.063,-30.5 304.672,-24.95 v 196.77 c 0,0 -126.301,6.32 -240.66,-25.33 0,0 2.648,83.12 -0.121,109.46 0,0 115.32,-33.01 241.211,-25.39 0,0 3.82,65 -27.11,216.44 0,0 50.521,-2.77 56.061,-2.51" style="" id="path124" data-darkreader-inline-fill="" data-darkreader-inline-stroke=""/>
		</g>
	</g>
</svg>