<?xml version="1.0" encoding="UTF-8"?>
<!-- Generator: Adobe Illustrator 16.0.0, SVG Export Plug-In . SVG Version: 6.00 Build 0)  -->
<!DOCTYPE svg PUBLIC "-//W3C//DTD SVG 1.1//EN" "http://www.w3.org/Graphics/SVG/1.1/DTD/svg11.dtd">
<svg version="1.1" xmlns="http://www.w3.org/2000/svg" xmlns:xlink="http://www.w3.org/1999/xlink" x="0px" y="0px" width="450px" height="143px" viewBox="0 0 450 143" enable-background="new 0 0 450 143" xml:space="preserve">
<g id="text">
	<g>
		<path fill="#004D97" d="M110.976,31V18.063L104.285,31h-2.642L95.15,18.285V31h-2.963V11.595h3.21l7.653,15.529l7.926-15.529    h2.962V31H110.976z"/>
		<path fill="#004D97" d="M123.566,11.595V31h-2.963V11.595H123.566z"/>
		<path fill="#004D97" d="M149.465,11.595V31h-2.396l-13.875-14.443V31h-2.963V11.595h2.42l13.851,14.468V11.595H149.465z"/>
		<path fill="#004D97" d="M159.092,11.595V31h-2.962V11.595H159.092z"/>
		<path fill="#004D97" d="M165.191,26.457c0.864,0.988,2.765,2.074,4.32,2.074c1.803,0,3.111-1.037,3.111-2.814    c0-3.357-8.099-2.889-8.099-8.814c0-3.456,2.864-5.555,5.679-5.555c1.827,0,3.209,0.667,3.975,1.333v3.777    c-0.691-1.012-2.173-2.37-3.95-2.37c-1.654,0-2.716,1.111-2.716,2.691c0,3.629,8.172,3.012,8.172,8.813    c0,3.63-3.036,5.753-6.271,5.753c-1.803,0-3.309-0.691-4.222-1.506V26.457z"/>
		<path fill="#004D97" d="M177.164,11.595h15.604v2.765h-6.32V31h-2.963V14.359h-6.32V11.595z"/>
		<path fill="#004D97" d="M201.654,23.594c-0.543,0.073-1.11,0.123-1.703,0.123h-1.013V31h-2.962V11.595h4.073    c4.469,0,7.382,1.827,7.382,6.049c0,2.246-1.062,3.9-2.766,4.913L212.344,31h-4.173L201.654,23.594z M198.938,21.001h1.136    c2.567,0,4.173-1.062,4.173-3.407c0-2.246-1.556-3.234-4.099-3.234h-1.21V21.001z"/>
		<path fill="#004D97" d="M220.713,31h-2.963v-7.703l-6.395-11.702h3.407l4.642,8.765l4.443-8.765h3.407l-6.542,11.752V31z"/>
		<path fill="#004D97" d="M101.15,54.972c5.703,0.049,9.776,3.678,9.899,9.529c0.099,5.728-3.999,10.27-10.048,10.37    c-6.889-0.074-9.851-5.358-9.776-9.974C91.2,60.896,94.187,54.996,101.15,54.972z M101.05,72.13    c4.346-0.074,7.012-3.383,6.938-7.505c-0.099-4.223-2.74-6.889-6.838-6.913c-5.012,0.024-6.864,4.32-6.839,7.185    C94.237,68.229,96.088,72.08,101.05,72.13z"/>
		<path fill="#004D97" d="M115.394,74.5V55.095h9.061v2.765h-6.098v5.604h4.296v2.741h-4.296V74.5H115.394z"/>
		<path fill="#004D97" d="M137.737,74.5V55.095h9.061v2.765H140.7v5.604h4.296v2.741H140.7V74.5H137.737z"/>
		<path fill="#004D97" d="M159.537,54.972c5.703,0.049,9.776,3.678,9.899,9.529c0.099,5.728-3.999,10.27-10.048,10.37    c-6.889-0.074-9.851-5.358-9.776-9.974C149.586,60.896,152.574,54.996,159.537,54.972z M159.437,72.13    c4.346-0.074,7.012-3.383,6.938-7.505c-0.099-4.223-2.74-6.889-6.838-6.913c-5.012,0.024-6.864,4.32-6.839,7.185    C152.624,68.229,154.475,72.08,159.437,72.13z"/>
		<path fill="#004D97" d="M179.335,67.094c-0.543,0.073-1.11,0.123-1.703,0.123h-1.013V74.5h-2.962V55.095h4.073    c4.469,0,7.382,1.827,7.382,6.049c0,2.246-1.062,3.9-2.766,4.913l7.679,8.443h-4.173L179.335,67.094z M176.62,64.501h1.136    c2.567,0,4.173-1.062,4.173-3.407c0-2.246-1.556-3.234-4.099-3.234h-1.21V64.501z"/>
		<path fill="#004D97" d="M201.184,74.5h-9.061V55.095h9.061v2.765h-6.098v5.556h4.32v2.74h-4.32v5.604h6.098V74.5z"/>
		<path fill="#004D97" d="M209.653,55.095V74.5h-2.962V55.095H209.653z"/>
		<path fill="#004D97" d="M214.343,64.896c0-4,2.913-10.049,10.172-10.049c2.173,0,4.567,0.469,5.926,1.309v3.506    c-1.407-1.186-3.333-2.074-5.926-2.074c-5.283,0-7.086,4.444-7.086,7.309c0,3.135,1.827,7.184,6.839,7.184    c1.877,0,2.963-0.296,4.197-0.79v-5.678h2.963v7.061c-1.827,1.26-4.222,2.149-7.16,2.149c-6.962-0.025-9.925-5.531-9.925-9.901    V64.896z"/>
		<path fill="#004D97" d="M255.598,55.095V74.5h-2.396l-13.875-14.443V74.5h-2.963V55.095h2.42l13.851,14.468V55.095H255.598z"/>
		<path fill="#004D97" d="M100.779,83.845l7.185,19.404h-3.185l-2.296-6.592h-6.518l-2.321,6.592h-3.185l7.431-19.404H100.779z     M96.927,93.917h4.593l-2.271-6.543L96.927,93.917z"/>
		<path fill="#004D97" d="M130.405,83.845v19.404h-2.396l-13.875-14.443v14.443h-2.963V83.845h2.42l13.851,14.467V83.845H130.405z"/>
		<path fill="#004D97" d="M136.773,103.25V83.845h3.456c7.926,0,12.69,2.691,12.69,9.775c0,6.717-4.765,9.629-12.641,9.629H136.773z     M139.736,100.509h1.185c5.629,0,8.888-1.803,8.888-7.061c0-5.061-3.382-6.84-8.962-6.84h-1.11V100.509z"/>
		<path fill="#004D97" d="M175.928,103.25h-9.061V83.845h9.061v2.764h-6.098v5.557h4.32v2.74h-4.32v5.604h6.098V103.25z"/>
		<path fill="#004D97" d="M183.41,83.845v9.283c0,3.998,1.802,7.801,6.271,7.801c3.703,0,6.246-2.938,6.246-7.777v-9.307h2.963    v9.283c0,6.295-3.802,10.492-9.209,10.492c-6.419,0-9.233-4.371-9.233-10.469v-9.307H183.41z"/>
		<path fill="#004D97" d="M209.998,95.843c-0.543,0.074-1.11,0.123-1.703,0.123h-1.013v7.283h-2.962V83.845h4.073    c4.469,0,7.382,1.826,7.382,6.049c0,2.246-1.062,3.9-2.766,4.912l7.679,8.443h-4.173L209.998,95.843z M207.282,93.251h1.136    c2.567,0,4.173-1.063,4.173-3.408c0-2.246-1.556-3.234-4.099-3.234h-1.21V93.251z"/>
		<path fill="#004D97" d="M231.131,83.722c5.703,0.049,9.776,3.678,9.899,9.529c0.1,5.727-3.999,10.27-10.048,10.369    c-6.889-0.074-9.851-5.357-9.776-9.975C221.181,89.646,224.168,83.746,231.131,83.722z M231.032,100.88    c4.346-0.074,7.012-3.383,6.938-7.506c-0.1-4.223-2.741-6.889-6.839-6.912c-5.013,0.023-6.864,4.32-6.839,7.184    C224.218,96.98,226.07,100.83,231.032,100.88z"/>
		<path fill="#004D97" d="M248.214,95.966v7.283h-2.963V83.845h4.074c4.469,0,7.382,1.826,7.382,6.049    c0,3.926-3.309,6.072-7.48,6.072H248.214z M248.214,93.251h1.136c2.567,0,4.173-1.063,4.173-3.408    c0-2.246-1.556-3.234-4.099-3.234h-1.21V93.251z"/>
		<path fill="#004D97" d="M270.335,103.25h-9.061V83.845h9.061v2.764h-6.098v5.557h4.32v2.74h-4.32v5.604h6.098V103.25z"/>
		<path fill="#004D97" d="M283.938,83.845l7.185,19.404h-3.185l-2.296-6.592h-6.518l-2.321,6.592h-3.185l7.431-19.404H283.938z     M280.087,93.917h4.592l-2.271-6.543L280.087,93.917z"/>
		<path fill="#004D97" d="M313.811,83.845v19.404h-2.396l-13.875-14.443v14.443h-2.963V83.845h2.42l13.851,14.467V83.845H313.811z"/>
		<path fill="#004D97" d="M336.226,83.845l7.185,19.404h-3.185l-2.296-6.592h-6.518l-2.321,6.592h-3.185l7.431-19.404H336.226z     M332.375,93.917h4.593l-2.271-6.543L332.375,93.917z"/>
		<path fill="#004D97" d="M346.99,103.25V83.845h9.061v2.764h-6.098v5.605h4.296v2.74h-4.296v8.295H346.99z"/>
		<path fill="#004D97" d="M359.951,103.25V83.845h9.061v2.764h-6.098v5.605h4.296v2.74h-4.296v8.295H359.951z"/>
		<path fill="#004D97" d="M380.146,83.845l7.185,19.404h-3.185l-2.296-6.592h-6.518l-2.321,6.592h-3.185l7.431-19.404H380.146z     M376.294,93.917h4.593l-2.271-6.543L376.294,93.917z"/>
		<path fill="#004D97" d="M393.501,83.845v19.404h-2.963V83.845H393.501z"/>
		<path fill="#004D97" d="M405.106,95.843c-0.543,0.074-1.11,0.123-1.703,0.123h-1.013v7.283h-2.963V83.845h4.074    c4.469,0,7.382,1.826,7.382,6.049c0,2.246-1.062,3.9-2.765,4.912l7.678,8.443h-4.173L405.106,95.843z M402.39,93.251h1.136    c2.567,0,4.173-1.063,4.173-3.408c0-2.246-1.556-3.234-4.099-3.234h-1.21V93.251z"/>
		<path fill="#004D97" d="M417.697,98.707c0.864,0.988,2.765,2.074,4.321,2.074c1.803,0,3.111-1.037,3.111-2.814    c0-3.357-8.099-2.889-8.099-8.814c0-3.455,2.864-5.555,5.679-5.555c1.826,0,3.209,0.668,3.975,1.334v3.777    c-0.691-1.012-2.174-2.371-3.951-2.371c-1.654,0-2.715,1.111-2.715,2.691c0,3.629,8.172,3.012,8.172,8.814    c0,3.629-3.037,5.752-6.271,5.752c-1.803,0-3.309-0.691-4.222-1.506V98.707z"/>
		<path fill="#004D97" d="M101.15,112.472c5.703,0.049,9.776,3.678,9.899,9.529c0.099,5.727-3.999,10.27-10.048,10.369    c-6.889-0.074-9.851-5.357-9.776-9.975C91.2,118.396,94.187,112.496,101.15,112.472z M101.05,129.63    c4.346-0.074,7.012-3.383,6.938-7.506c-0.099-4.223-2.74-6.889-6.838-6.912c-5.012,0.023-6.864,4.32-6.839,7.184    C94.237,125.73,96.088,129.58,101.05,129.63z"/>
		<path fill="#004D97" d="M115.394,132v-19.404h9.061v2.764h-6.098v5.605h4.296v2.74h-4.296V132H115.394z"/>
		<path fill="#004D97" d="M136.378,112.595h15.604v2.764h-6.32V132h-2.963v-16.641h-6.32V112.595z"/>
		<path fill="#004D97" d="M168.745,112.595h2.963V132h-2.963v-8.32h-9.851V132h-2.963v-19.404h2.963v8.344h9.851V112.595z"/>
		<path fill="#004D97" d="M187.31,132h-9.061v-19.404h9.061v2.764h-6.098v5.557h4.32v2.74h-4.32v5.604h6.098V132z"/>
		<path fill="#004D97" d="M201.382,127.457c0.864,0.988,2.765,2.074,4.32,2.074c1.803,0,3.111-1.037,3.111-2.814    c0-3.357-8.099-2.889-8.099-8.814c0-3.455,2.864-5.555,5.679-5.555c1.827,0,3.209,0.668,3.975,1.334v3.777    c-0.691-1.012-2.173-2.371-3.95-2.371c-1.654,0-2.716,1.111-2.716,2.691c0,3.629,8.172,3.012,8.172,8.814    c0,3.629-3.036,5.752-6.271,5.752c-1.803,0-3.309-0.691-4.222-1.506V127.457z"/>
		<path fill="#004D97" d="M227.057,132h-10.245v-19.404h2.962v16.664h7.283V132z"/>
		<path fill="#004D97" d="M238.415,112.472c5.703,0.049,9.776,3.678,9.899,9.529c0.1,5.727-3.999,10.27-10.048,10.369    c-6.889-0.074-9.851-5.357-9.776-9.975C228.464,118.396,231.452,112.496,238.415,112.472z M238.315,129.63    c4.346-0.074,7.012-3.383,6.938-7.506c-0.1-4.223-2.741-6.889-6.839-6.912c-5.013,0.023-6.864,4.32-6.839,7.184    C231.501,125.73,233.353,129.58,238.315,129.63z"/>
		<path fill="#004D97" d="M258.733,128.593l5.802-15.998h3.185L260.189,132h-3.11l-7.012-19.404h3.185L258.733,128.593z"/>
		<path fill="#004D97" d="M278.779,112.595L285.963,132h-3.185l-2.296-6.592h-6.518L271.644,132h-3.185l7.431-19.404H278.779z     M274.927,122.667h4.593l-2.271-6.543L274.927,122.667z"/>
		<path fill="#004D97" d="M291.887,112.595v9.555l8.469-9.555h3.95l-8.987,9.752l8.913,9.652h-4l-8.345-9.258V132h-2.962v-19.404    H291.887z"/>
		<path fill="#004D97" d="M322.574,124.593c-0.543,0.074-1.11,0.123-1.703,0.123h-1.013V132h-2.962v-19.404h4.073    c4.469,0,7.382,1.826,7.382,6.049c0,2.246-1.062,3.9-2.766,4.912l7.679,8.443h-4.173L322.574,124.593z M319.858,122.001h1.136    c2.567,0,4.173-1.063,4.173-3.408c0-2.246-1.556-3.234-4.099-3.234h-1.21V122.001z"/>
		<path fill="#004D97" d="M344.176,132h-9.061v-19.404h9.061v2.764h-6.098v5.557h4.32v2.74h-4.32v5.604h6.098V132z"/>
		<path fill="#004D97" d="M353.137,124.716V132h-2.962v-19.404h4.073c4.469,0,7.382,1.826,7.382,6.049    c0,3.926-3.309,6.072-7.48,6.072H353.137z M353.137,122.001h1.136c2.567,0,4.173-1.063,4.173-3.408    c0-2.246-1.556-3.234-4.099-3.234h-1.21V122.001z"/>
		<path fill="#004D97" d="M368.049,112.595v9.283c0,3.998,1.802,7.801,6.271,7.801c3.703,0,6.246-2.938,6.246-7.777v-9.307h2.963    v9.283c0,6.295-3.802,10.492-9.209,10.492c-6.419,0-9.233-4.371-9.233-10.469v-9.307H368.049z"/>
		<path fill="#004D97" d="M388.96,132v-19.404h2.765c4.345,0,7.653,1.357,7.653,5.283c0,1.926-1.037,3.037-2.839,3.58    c2.79,0.518,4.642,2.023,4.642,4.863c0,4.766-4.567,5.678-8.543,5.678H388.96z M392.738,120.619c2.296,0,3.629-0.791,3.629-2.592    c0-2.197-2.173-2.691-4.024-2.691h-0.42v5.283H392.738z M393.108,123.359h-1.186v5.9h1.087c3.086,0,5.086-0.395,5.086-2.889    S395.971,123.359,393.108,123.359z"/>
		<path fill="#004D97" d="M416.117,132h-10.246v-19.404h2.963v16.664h7.283V132z"/>
		<path fill="#004D97" d="M422.461,112.595V132H419.5v-19.404H422.461z"/>
		<path fill="#004D97" d="M427.178,122.396c-0.025-4,2.961-10.049,9.924-10.049c2.74,0,4.814,0.766,6.172,1.852v3.506    c-1.406-1.406-3.135-2.617-6.172-2.617c-5.012,0-6.863,4.445-6.838,7.309c0,3.135,1.826,7.184,6.838,7.184    c2.592,0,4.789-0.912,6.172-2.221v3.111c-1.531,1.135-3.234,1.852-6.172,1.852c-6.963-0.025-9.924-5.531-9.924-9.9V122.396z"/>
	</g>
</g>
<g id="linka_kopie">
	<g>
		<g>
			<path fill="#D9DADB" d="M136.659,42.703H92.158V39.74h44.501V42.703z"/>
		</g>
		<g>
			<path fill="#004D97" d="M181.14,42.703h-44.501V39.74h44.501V42.703z"/>
		</g>
		<g>
			<path fill="#E2001A" d="M225.621,42.703h-44.502V39.74h44.502V42.703z"/>
		</g>
	</g>
</g>
<g id="znak">
	<g>
		<g>
			<path fill="#E2001A" d="M40.504,92.28C27.231,85.885,8.242,73.193,8.242,48.089s1.201-36.521,1.201-36.521h62.124     c0,0,1.203,11.417,1.203,36.521S53.78,85.885,40.504,92.28"/>
		</g>
		<g>
			<defs>
				<path id="SVGID_1_" d="M40.504,92.28C27.231,85.885,8.242,73.193,8.242,48.089s1.201-36.521,1.201-36.521h31.062h31.063      c0,0,1.201,11.417,1.201,36.521S53.78,85.885,40.504,92.28"/>
			</defs>
			<clipPath id="SVGID_2_">
				<use xlink:href="#SVGID_1_" overflow="visible"/>
			</clipPath>
			<path clip-path="url(#SVGID_2_)" fill="#FFFFFF" d="M43.345,41.506c3.594,0.06,10.607,0.2,16.85-1.891     c0,0-0.164,2.237-0.164,4.84c0,2.602,0.164,4.836,0.164,4.836c-5.725-1.915-12.8-1.955-16.85-1.904v13.865h-5.676V47.387     c-4.052-0.051-11.125-0.011-16.853,1.904c0,0,0.165-2.234,0.165-4.836c0-2.603-0.165-4.84-0.165-4.84     c6.243,2.091,13.256,1.95,16.853,1.891v-8.707c-3.276-0.028-7.998,0.128-13.335,1.914c0,0,0.164-2.235,0.164-4.839     c0-2.601-0.164-4.836-0.164-4.836c5.328,1.781,10.043,1.941,13.318,1.914c-0.168-5.514-1.773-12.465-1.773-12.465     s3.306,0.257,4.626,0.257c1.324,0,4.629-0.257,4.629-0.257s-1.605,6.951-1.774,12.465c3.276,0.027,7.991-0.133,13.319-1.914     c0,0-0.164,2.235-0.164,4.836c0,2.604,0.164,4.839,0.164,4.839c-5.336-1.786-10.059-1.942-13.333-1.914V41.506"/>
			<path clip-path="url(#SVGID_2_)" fill-rule="evenodd" clip-rule="evenodd" fill="#004D97" d="M39.922,100.516l-27.505-24.52     c0,0,3.514-11.372,10.38-11.372c5.454,0,7.444,4.397,7.444,4.397s3.58-9.271,10.264-9.271c6.688,0,10.267,9.271,10.267,9.271     s1.99-4.397,7.444-4.397c6.865,0,10.379,11.372,10.379,11.372L39.922,100.516"/>
		</g>
	</g>
</g>
</svg>